<svg width="27" height="26" viewBox="0 0 27 26" fill="none" xmlns="http://www.w3.org/2000/svg">
<path d="M13.2637 0.0376587C20.3404 0.0376587 26.077 5.77446 26.0772 12.8511C26.0772 19.928 20.3405 25.6656 13.2637 25.6656C7.48896 25.6656 2.60639 21.8417 1.00589 16.5904L5.8555 18.5914C6.09584 19.6834 6.84854 20.6406 7.95413 21.1011C8.82425 21.4627 9.8027 21.4641 10.6739 21.105C11.5448 20.746 12.2379 20.0565 12.6006 19.1871C12.7941 18.724 12.8879 18.2249 12.875 17.7232L17.3565 14.5172L17.4668 14.5191C20.1516 14.519 22.3339 12.3306 22.334 9.64215C22.334 6.95369 20.1557 4.77282 17.4668 4.76715C14.7831 4.76715 12.5996 6.95365 12.5996 9.64215H12.6035L12.6045 9.70563L9.46975 14.2603C8.96214 14.2371 8.45238 14.3261 7.96878 14.525C7.75821 14.6105 7.55642 14.7179 7.36819 14.8453L0.483425 12.0074C0.483425 12.0074 0.482547 12.0086 0.482449 12.0103C0.480593 12.0072 0.479427 12.0037 0.477566 12.0005C0.916438 5.32096 6.4732 0.0376908 13.2637 0.0376587ZM8.34964 15.2505C8.98133 15.0105 9.69942 15.0029 10.3711 15.2818C11.0518 15.5633 11.5729 16.0932 11.8516 16.7711C12.1302 17.4489 12.1286 18.1966 11.8477 18.8716L11.7295 19.1255C11.0682 20.3508 9.57475 20.8966 8.26565 20.3511C7.64603 20.0907 7.14378 19.6111 6.85452 19.0045L8.4385 19.6617C8.68316 19.7635 8.94596 19.8165 9.21096 19.817C9.4761 19.8174 9.7393 19.7647 9.9844 19.6636C10.2294 19.5625 10.452 19.4143 10.6397 19.2271C10.8274 19.0399 10.9764 18.8176 11.0782 18.5728C11.2842 18.0781 11.2859 17.5215 11.0821 17.0259C10.8782 16.5304 10.4857 16.1359 9.99124 15.9293L8.34964 15.2505ZM17.4707 6.39508C18.3311 6.3972 19.1558 6.74041 19.7637 7.34918C20.3716 7.95794 20.7139 8.78284 20.7149 9.64313C20.7141 10.5035 20.3716 11.3282 19.7637 11.9371C19.1557 12.546 18.3312 12.8891 17.4707 12.8912C16.6106 12.8887 15.7864 12.5459 15.1787 11.9371C14.571 11.3282 14.2294 10.5034 14.2285 9.64313C14.2295 8.78298 14.571 7.95791 15.1787 7.34918C15.7864 6.74053 16.6107 6.39751 17.4707 6.39508ZM17.4756 7.19684C16.8293 7.19798 16.2094 7.45606 15.753 7.91364C15.2967 8.37117 15.0406 8.99115 15.041 9.63727C15.0407 10.2836 15.2973 10.9044 15.7539 11.3619C16.2104 11.819 16.8296 12.0767 17.4756 12.0777C18.1222 12.0771 18.7424 11.8194 19.1992 11.3619C19.6561 10.9044 19.9125 10.2838 19.9121 9.63727C19.9119 8.28998 18.8189 7.19684 17.4756 7.19684Z" fill="#F0F0F0"/>
</svg>
