<svg width="383" height="383" viewBox="0 0 383 383" fill="none" xmlns="http://www.w3.org/2000/svg">
<g clip-path="url(#clip0_2618_335)">
<path opacity="0.3" d="M252.014 177.137C245.503 149.753 220.799 129.262 191.5 129.262C162.009 129.262 137.497 149.753 130.986 177.137H67.9824C75.0679 115.283 127.73 67.0249 191.5 67.0249C255.269 67.0249 307.931 115.283 315.208 177.137H252.014Z" fill="#4E382C"/>
<path d="M191.5 38.8C106.857 38.8 38.2998 107.357 38.2998 192C38.2998 276.643 106.857 345.2 191.5 345.2C276.143 345.2 344.7 276.643 344.7 192C344.7 107.357 276.143 38.8 191.5 38.8ZM191.5 67.525C255.269 67.525 307.932 115.783 315.209 177.637H252.205C245.694 150.253 220.991 129.762 191.691 129.762C162.392 129.762 137.688 150.253 131.177 177.637H67.7908C75.0678 115.783 127.73 67.525 191.5 67.525ZM225.012 192C225.012 210.384 209.884 225.512 191.5 225.512C173.116 225.512 157.987 210.384 157.987 192C157.987 173.616 173.116 158.487 191.5 158.487C209.884 158.487 225.012 173.616 225.012 192ZM191.5 316.475C127.73 316.475 75.0678 268.217 67.7908 206.362H130.794C137.305 233.747 162.009 254.237 191.308 254.237C220.608 254.237 245.311 233.747 251.822 206.362H314.826C307.932 268.217 255.269 316.475 191.5 316.475Z" fill="#D95103"/>
</g>
<defs>
<clipPath id="clip0_2618_335">
<rect width="383" height="383" fill="white"/>
</clipPath>
</defs>
</svg>
